<svg width="16" height="14" viewBox="0 0 16 14" fill="none" xmlns="http://www.w3.org/2000/svg">
<path d="M6.33301 5.33333C6.33301 4.78105 6.78072 4.33333 7.33301 4.33333H8.66634C9.21863 4.33333 9.66634 4.78105 9.66634 5.33333V11.6667C9.66634 12.219 9.21863 12.6667 8.66634 12.6667H7.33301C6.78072 12.6667 6.33301 12.219 6.33301 11.6667V5.33333Z" stroke="#4D007D" stroke-width="1.5" stroke-linecap="round" stroke-linejoin="round"/>
<path d="M1.33301 8.66667C1.33301 8.11438 1.78072 7.66667 2.33301 7.66667H3.66634C4.21863 7.66667 4.66634 8.11438 4.66634 8.66667V11.6667C4.66634 12.219 4.21863 12.6667 3.66634 12.6667H2.33301C1.78072 12.6667 1.33301 12.219 1.33301 11.6667V8.66667Z" stroke="#4D007D" stroke-width="1.5" stroke-linecap="round" stroke-linejoin="round"/>
<path d="M11.333 2C11.333 1.44772 11.7807 1 12.333 1H13.6663C14.2186 1 14.6663 1.44772 14.6663 2V11.6667C14.6663 12.219 14.2186 12.6667 13.6663 12.6667H12.333C11.7807 12.6667 11.333 12.219 11.333 11.6667V2Z" stroke="#4D007D" stroke-width="1.5" stroke-linecap="round" stroke-linejoin="round"/>
</svg>
