<svg width="20" height="16" viewBox="0 0 20 16" fill="none" xmlns="http://www.w3.org/2000/svg">
<path d="M3.33335 1.33325L8.23225 6.23215M16.6667 14.6666L11.7678 9.76769M8.23225 6.23215C7.77984 6.68456 7.50002 7.30956 7.50002 7.99992C7.50002 9.38063 8.61931 10.4999 10 10.4999C10.6904 10.4999 11.3154 10.2201 11.7678 9.76769M8.23225 6.23215L11.7678 9.76769M5.6402 3.6401C3.94038 4.74908 2.46984 6.35493 1.66669 7.99973C3.12207 10.9803 6.76837 13.8333 9.99982 13.8333C11.448 13.8333 12.9795 13.2603 14.3598 12.3597M8.13451 2.45589C8.75956 2.26922 9.38745 2.16659 10.0004 2.16659C13.2319 2.16659 16.8776 5.0199 18.3334 8.00009C17.8734 8.94172 17.1947 9.87066 16.3795 10.7009" stroke="#4D007D" stroke-width="1.5" stroke-linecap="round" stroke-linejoin="round"/>
</svg>
